<mxfile host="app.diagrams.net" modified="2022-08-20T21:36:21.682Z" agent="5.0 (Windows NT 10.0; Win64; x64) AppleWebKit/537.36 (KHTML, like Gecko) Chrome/104.0.0.0 Safari/537.36" etag="6bP7cm8XEO48kSU-k8VR" version="20.2.5" type="github">
  <diagram name="subnets" id="bfe91b75-5d2c-26a0-9c1d-138518896778">
    <mxGraphModel dx="593" dy="308" grid="1" gridSize="10" guides="1" tooltips="1" connect="1" arrows="1" fold="1" page="1" pageScale="1" pageWidth="1100" pageHeight="850" background="none" math="0" shadow="0">
      <root>
        <mxCell id="0" />
        <mxCell id="1" parent="0" />
        <mxCell id="J3v6YOT9HYIqkn5Tcidv-4" style="edgeStyle=orthogonalEdgeStyle;rounded=0;orthogonalLoop=1;jettySize=auto;html=1;exitX=0.145;exitY=0.855;exitDx=0;exitDy=0;exitPerimeter=0;endArrow=oval;endFill=1;" edge="1" parent="1" source="J3v6YOT9HYIqkn5Tcidv-1">
          <mxGeometry relative="1" as="geometry">
            <mxPoint x="487" y="320" as="targetPoint" />
          </mxGeometry>
        </mxCell>
        <mxCell id="J3v6YOT9HYIqkn5Tcidv-5" style="edgeStyle=orthogonalEdgeStyle;rounded=0;orthogonalLoop=1;jettySize=auto;html=1;exitX=0.855;exitY=0.8555;exitDx=0;exitDy=0;exitPerimeter=0;endArrow=oval;endFill=1;" edge="1" parent="1" source="J3v6YOT9HYIqkn5Tcidv-1">
          <mxGeometry relative="1" as="geometry">
            <mxPoint x="523" y="350" as="targetPoint" />
          </mxGeometry>
        </mxCell>
        <mxCell id="J3v6YOT9HYIqkn5Tcidv-1" value="" style="sketch=0;points=[[0.5,0,0],[1,0.5,0],[0.5,1,0],[0,0.5,0],[0.145,0.145,0],[0.8555,0.145,0],[0.855,0.8555,0],[0.145,0.855,0]];verticalLabelPosition=bottom;html=1;verticalAlign=top;aspect=fixed;align=center;pointerEvents=1;shape=mxgraph.cisco19.rect;prIcon=router;fillColor=#FAFAFA;strokeColor=#005073;" vertex="1" parent="1">
          <mxGeometry x="480" y="230" width="50" height="50" as="geometry" />
        </mxCell>
        <mxCell id="J3v6YOT9HYIqkn5Tcidv-2" value="" style="endArrow=none;html=1;rounded=0;" edge="1" parent="1">
          <mxGeometry width="50" height="50" relative="1" as="geometry">
            <mxPoint x="410" y="320" as="sourcePoint" />
            <mxPoint x="620" y="320" as="targetPoint" />
          </mxGeometry>
        </mxCell>
        <mxCell id="J3v6YOT9HYIqkn5Tcidv-3" value="" style="endArrow=none;html=1;rounded=0;" edge="1" parent="1">
          <mxGeometry width="50" height="50" relative="1" as="geometry">
            <mxPoint x="410" y="350" as="sourcePoint" />
            <mxPoint x="620" y="350" as="targetPoint" />
          </mxGeometry>
        </mxCell>
      </root>
    </mxGraphModel>
  </diagram>
</mxfile>
